<svg width="186" height="36" xmlns="http://www.w3.org/2000/svg" xmlns:xlink="http://www.w3.org/1999/xlink"><defs><path d="M29.5 0h21a1 1 0 0 1 1 1v3.824a1 1 0 0 1-1 1h-21a1 1 0 0 1-1-1V1a1 1 0 0 1 1-1zm0 27.176h21a1 1 0 0 1 1 1V32a1 1 0 0 1-1 1h-21a1 1 0 0 1-1-1v-3.824a1 1 0 0 1 1-1zM29.5 12h15.357a1 1 0 0 1 1 1v3.824a1 1 0 0 1-1 1H29.5a1 1 0 0 1-1-1V13a1 1 0 0 1 1-1z" id="b"/><filter x="-6.5%" y="-4.5%" width="126.1%" height="118.2%" filterUnits="objectBoundingBox" id="a"><feOffset dx="2" dy="2" in="SourceAlpha" result="shadowOffsetOuter1"/><feGaussianBlur stdDeviation=".5" in="shadowOffsetOuter1" result="shadowBlurOuter1"/><feColorMatrix values="0 0 0 0 0 0 0 0 0 0 0 0 0 0 0 0 0 0 0.12 0" in="shadowBlurOuter1"/></filter><filter x="-2.2%" y="-1.5%" width="117.4%" height="112.1%" filterUnits="objectBoundingBox" id="c"><feOffset dy="-1" in="SourceAlpha" result="shadowOffsetInner1"/><feComposite in="shadowOffsetInner1" in2="SourceAlpha" operator="arithmetic" k2="-1" k3="1" result="shadowInnerInner1"/><feColorMatrix values="0 0 0 0 0 0 0 0 0 0 0 0 0 0 0 0 0 0 0.12 0" in="shadowInnerInner1"/></filter><path d="M88 0h21a1 1 0 0 1 1 1v3.824a1 1 0 0 1-1 1H88a1 1 0 0 1-1-1V1a1 1 0 0 1 1-1zm0 27.176h21a1 1 0 0 1 1 1V32a1 1 0 0 1-1 1H88a1 1 0 0 1-1-1v-3.824a1 1 0 0 1 1-1zM88 12h15.357a1 1 0 0 1 1 1v3.824a1 1 0 0 1-1 1H88a1 1 0 0 1-1-1V13a1 1 0 0 1 1-1z" id="e"/><filter x="-6.5%" y="-4.5%" width="126.1%" height="118.2%" filterUnits="objectBoundingBox" id="d"><feOffset dx="2" dy="2" in="SourceAlpha" result="shadowOffsetOuter1"/><feGaussianBlur stdDeviation=".5" in="shadowOffsetOuter1" result="shadowBlurOuter1"/><feColorMatrix values="0 0 0 0 0 0 0 0 0 0 0 0 0 0 0 0 0 0 0.12 0" in="shadowBlurOuter1"/></filter><filter x="-2.2%" y="-1.5%" width="117.4%" height="112.1%" filterUnits="objectBoundingBox" id="f"><feOffset dy="-1" in="SourceAlpha" result="shadowOffsetInner1"/><feComposite in="shadowOffsetInner1" in2="SourceAlpha" operator="arithmetic" k2="-1" k3="1" result="shadowInnerInner1"/><feColorMatrix values="0 0 0 0 0 0 0 0 0 0 0 0 0 0 0 0 0 0 0.12 0" in="shadowInnerInner1"/></filter><rect id="h" x="145.5" width="6" height="33" rx="1"/><filter x="-25%" y="-4.5%" width="200%" height="118.2%" filterUnits="objectBoundingBox" id="g"><feOffset dx="2" dy="2" in="SourceAlpha" result="shadowOffsetOuter1"/><feGaussianBlur stdDeviation=".5" in="shadowOffsetOuter1" result="shadowBlurOuter1"/><feColorMatrix values="0 0 0 0 0 0 0 0 0 0 0 0 0 0 0 0 0 0 0.12 0" in="shadowBlurOuter1"/></filter><filter x="-8.3%" y="-1.5%" width="166.7%" height="112.1%" filterUnits="objectBoundingBox" id="i"><feOffset dy="-1" in="SourceAlpha" result="shadowOffsetInner1"/><feComposite in="shadowOffsetInner1" in2="SourceAlpha" operator="arithmetic" k2="-1" k3="1" result="shadowInnerInner1"/><feColorMatrix values="0 0 0 0 0 0 0 0 0 0 0 0 0 0 0 0 0 0 0.12 0" in="shadowInnerInner1"/></filter><path d="M121.786 17.824V32a1 1 0 0 1-1 1H117a1 1 0 0 1-1-1V1a1 1 0 0 1 1-1h21.5a1 1 0 0 1 1 1v3.824a1 1 0 0 1-1 1h-16.714V12H132a1 1 0 0 1 1 1v3.824a1 1 0 0 1-1 1h-10.214z" id="k"/><filter x="-6.4%" y="-4.5%" width="125.5%" height="118.2%" filterUnits="objectBoundingBox" id="j"><feOffset dx="2" dy="2" in="SourceAlpha" result="shadowOffsetOuter1"/><feGaussianBlur stdDeviation=".5" in="shadowOffsetOuter1" result="shadowBlurOuter1"/><feColorMatrix values="0 0 0 0 0 0 0 0 0 0 0 0 0 0 0 0 0 0 0.12 0" in="shadowBlurOuter1"/></filter><filter x="-2.1%" y="-1.5%" width="117%" height="112.1%" filterUnits="objectBoundingBox" id="l"><feOffset dy="-1" in="SourceAlpha" result="shadowOffsetInner1"/><feComposite in="shadowOffsetInner1" in2="SourceAlpha" operator="arithmetic" k2="-1" k3="1" result="shadowInnerInner1"/><feColorMatrix values="0 0 0 0 0 0 0 0 0 0 0 0 0 0 0 0 0 0 0.12 0" in="shadowInnerInner1"/></filter><path d="M172.885 5.824V32a1 1 0 0 1-1 1h-3.77a1 1 0 0 1-1-1V5.824H158.5a1 1 0 0 1-1-1V1a1 1 0 0 1 1-1h23a1 1 0 0 1 1 1v3.824a1 1 0 0 1-1 1h-8.615z" id="n"/><filter x="-6%" y="-4.5%" width="124%" height="118.2%" filterUnits="objectBoundingBox" id="m"><feOffset dx="2" dy="2" in="SourceAlpha" result="shadowOffsetOuter1"/><feGaussianBlur stdDeviation=".5" in="shadowOffsetOuter1" result="shadowBlurOuter1"/><feColorMatrix values="0 0 0 0 0 0 0 0 0 0 0 0 0 0 0 0 0 0 0.12 0" in="shadowBlurOuter1"/></filter><filter x="-2%" y="-1.5%" width="116%" height="112.1%" filterUnits="objectBoundingBox" id="o"><feOffset dy="-1" in="SourceAlpha" result="shadowOffsetInner1"/><feComposite in="shadowOffsetInner1" in2="SourceAlpha" operator="arithmetic" k2="-1" k3="1" result="shadowInnerInner1"/><feColorMatrix values="0 0 0 0 0 0 0 0 0 0 0 0 0 0 0 0 0 0 0.12 0" in="shadowInnerInner1"/></filter><path d="M10.895.081c4.672.583 8.272 4.236 8.272 8.654a8.135 8.135 0 0 1-1.442 4.61C20.9 15.245 23 18.557 23 22.324 23 28.22 17.85 33 11.5 33c-.295 0-.582-.003-.863-.01-.044.007-.09.01-.137.01H1a1 1 0 0 1-1-1V1a1 1 0 0 1 1-1h9.5c.14 0 .274.029.395.081zm-.385 11.566h.032c1.587 0 2.875-1.304 2.875-2.912 0-1.608-1.288-2.911-2.875-2.911a9.42 9.42 0 0 0-.042 0H6.75a1 1 0 0 0-1 1v3.823a1 1 0 0 0 1 1h3.76zm1.915 15.53h.033c2.647 0 4.792-2.173 4.792-4.853 0-2.68-2.145-4.853-4.792-4.853a15.75 15.75 0 0 0-.041 0H6.75a1 1 0 0 0-1 1v7.705a1 1 0 0 0 1 1h5.675z" id="q"/><filter x="-6.5%" y="-4.5%" width="126.1%" height="118.2%" filterUnits="objectBoundingBox" id="p"><feOffset dx="2" dy="2" in="SourceAlpha" result="shadowOffsetOuter1"/><feGaussianBlur stdDeviation=".5" in="shadowOffsetOuter1" result="shadowBlurOuter1"/><feColorMatrix values="0 0 0 0 0 0 0 0 0 0 0 0 0 0 0 0 0 0 0.12 0" in="shadowBlurOuter1"/></filter><filter x="-2.2%" y="-1.5%" width="117.4%" height="112.1%" filterUnits="objectBoundingBox" id="r"><feOffset dy="-1" in="SourceAlpha" result="shadowOffsetInner1"/><feComposite in="shadowOffsetInner1" in2="SourceAlpha" operator="arithmetic" k2="-1" k3="1" result="shadowInnerInner1"/><feColorMatrix values="0 0 0 0 0 0 0 0 0 0 0 0 0 0 0 0 0 0 0.12 0" in="shadowInnerInner1"/></filter><path d="M63.204.624L75 21.23V1a1 1 0 0 1 1-1h3.777a1 1 0 0 1 1 1v31a1 1 0 0 1-1 1H76a.999.999 0 0 1-.802-.402 1.011 1.011 0 0 1-.113-.156L63.277 12.37V32a1 1 0 0 1-1 1H58.5a1 1 0 0 1-1-1V1a1 1 0 0 1 1-1h3.777a1 1 0 0 1 .927.624z" id="t"/><filter x="-6.4%" y="-4.5%" width="125.8%" height="118.2%" filterUnits="objectBoundingBox" id="s"><feOffset dx="2" dy="2" in="SourceAlpha" result="shadowOffsetOuter1"/><feGaussianBlur stdDeviation=".5" in="shadowOffsetOuter1" result="shadowBlurOuter1"/><feColorMatrix values="0 0 0 0 0 0 0 0 0 0 0 0 0 0 0 0 0 0 0.12 0" in="shadowBlurOuter1"/></filter><filter x="-2.1%" y="-1.5%" width="117.2%" height="112.1%" filterUnits="objectBoundingBox" id="u"><feOffset dy="-1" in="SourceAlpha" result="shadowOffsetInner1"/><feComposite in="shadowOffsetInner1" in2="SourceAlpha" operator="arithmetic" k2="-1" k3="1" result="shadowInnerInner1"/><feColorMatrix values="0 0 0 0 0 0 0 0 0 0 0 0 0 0 0 0 0 0 0.12 0" in="shadowInnerInner1"/></filter></defs><g fill="none" fill-rule="evenodd"><g fill-rule="nonzero"><use fill="#000" filter="url(#a)" xlink:href="#b"/><use fill="#4299E1" xlink:href="#b"/><use fill="#000" filter="url(#c)" xlink:href="#b"/></g><g fill-rule="nonzero"><use fill="#000" filter="url(#d)" xlink:href="#e"/><use fill="#4299E1" xlink:href="#e"/><use fill="#000" filter="url(#f)" xlink:href="#e"/></g><g fill-rule="nonzero"><use fill="#000" filter="url(#g)" xlink:href="#h"/><use fill="#2C5282" xlink:href="#h"/><use fill="#000" filter="url(#i)" xlink:href="#h"/></g><g fill-rule="nonzero"><use fill="#000" filter="url(#j)" xlink:href="#k"/><use fill="#2C5282" xlink:href="#k"/><use fill="#000" filter="url(#l)" xlink:href="#k"/></g><g fill-rule="nonzero"><use fill="#000" filter="url(#m)" xlink:href="#n"/><use fill="#2C5282" xlink:href="#n"/><use fill="#000" filter="url(#o)" xlink:href="#n"/></g><g fill-rule="nonzero"><use fill="#000" filter="url(#p)" xlink:href="#q"/><use fill="#2C5282" xlink:href="#q"/><use fill="#000" filter="url(#r)" xlink:href="#q"/></g><g fill-rule="nonzero"><use fill="#000" filter="url(#s)" xlink:href="#t"/><use fill="#2C5282" xlink:href="#t"/><use fill="#000" filter="url(#u)" xlink:href="#t"/></g></g></svg>