<?xml version="1.0" encoding="UTF-8"?>
<svg width="28px" height="21px" viewBox="0 0 28 21" version="1.1" xmlns="http://www.w3.org/2000/svg" xmlns:xlink="http://www.w3.org/1999/xlink">
    <!-- Generator: Sketch 54 (76480) - https://sketchapp.com -->
    <title>flexbox</title>
    <desc>Created with Sketch.</desc>
    <g id="Page-1" stroke="none" stroke-width="1" fill="none" fill-rule="evenodd">
        <g id="flexbox" transform="translate(-0.500000, 0.000000)">
            <rect id="Rectangle" fill="#000000" fill-rule="nonzero" x="1.5" y="0" width="5" height="2" rx="1"></rect>
            <rect id="Rectangle-Copy-8" fill="#000000" fill-rule="nonzero" x="1.5" y="19" width="5" height="2" rx="1"></rect>
            <rect id="Rectangle-Copy-9" fill="#000000" fill-rule="nonzero" x="8.5" y="19" width="5" height="2" rx="1"></rect>
            <rect id="Rectangle-Copy-10" fill="#000000" fill-rule="nonzero" x="15.5" y="19" width="5" height="2" rx="1"></rect>
            <rect id="Rectangle-Copy-11" fill="#000000" fill-rule="nonzero" x="21.5" y="19" width="5" height="2" rx="1"></rect>
            <rect id="Rectangle-Copy" fill="#000000" fill-rule="nonzero" x="8.5" y="0" width="5" height="2" rx="1"></rect>
            <rect id="Rectangle-Copy-2" fill="#000000" fill-rule="nonzero" x="15.5" y="0" width="5" height="2" rx="1"></rect>
            <rect id="Rectangle-Copy-3" fill="#000000" fill-rule="nonzero" x="22.5" y="0" width="5" height="2" rx="1"></rect>
            <rect id="Rectangle-Copy-4" fill="#000000" fill-rule="nonzero" transform="translate(27.500000, 6.500000) rotate(-270.000000) translate(-27.500000, -6.500000) " x="25" y="5.5" width="5" height="2" rx="1"></rect>
            <rect id="Rectangle-Copy-7" fill="#000000" fill-rule="nonzero" transform="translate(1.500000, 6.500000) rotate(-270.000000) translate(-1.500000, -6.500000) " x="-1" y="5.5" width="5" height="2" rx="1"></rect>
            <rect id="Rectangle-Copy-5" fill="#000000" fill-rule="nonzero" transform="translate(27.500000, 14.500000) rotate(-270.000000) translate(-27.500000, -14.500000) " x="25" y="13.5" width="5" height="2" rx="1"></rect>
            <rect id="Rectangle-Copy-6" fill="#000000" fill-rule="nonzero" transform="translate(1.500000, 14.500000) rotate(-270.000000) translate(-1.500000, -14.500000) " x="-1" y="13.5" width="5" height="2" rx="1"></rect>
            <g id="grid" transform="translate(5.500000, 5.000000)" stroke="#000000" stroke-linecap="round" stroke-linejoin="round" stroke-width="2">
                <rect id="Rectangle" x="0" y="0" width="7" height="11"></rect>
                <rect id="Rectangle" x="11" y="0" width="7" height="11"></rect>
            </g>
        </g>
    </g>
</svg>